# xmcd CD database file
#
# Track frame offsets:
#	150
#	38943
#	63585
#	95982
#	129817
#	165421
#	188614
#
# Disc length: 2783 seconds
#
# Revision: 0
# Processed by: cddbd v1.5.2PL0 Copyright (c) Steve Scherf et al.
# Submitted via: CDex 1.51
#
DISCID=570add07
DTITLE=Compassionate Dictatorship - Coup d'Etat
DYEAR=2007
DGENRE=Jazz
TTITLE0=The Hang
TTITLE1=Bladey
TTITLE2=Brain Pickle
TTITLE3=Seizmic
TTITLE4=Virtual Joyride
TTITLE5=It's No Good Knowing (if you don't know you know)
TTITLE6=Crustacean
EXTD=YEAR: 2007
EXTT0=
EXTT1=
EXTT2=
EXTT3=
EXTT4=
EXTT5=
EXTT6=
PLAYORDER=
